<?xml version="1.0" encoding="UTF-8"?>
<svg id="Layer_1" data-name="Layer 1" xmlns="http://www.w3.org/2000/svg" viewBox="0 0 295.98 280.93">
  <defs>
    <style>
      .cls-1 {
        fill: #d9f1fd;
      }

      .cls-1, .cls-2, .cls-3, .cls-4, .cls-5, .cls-6 {
        stroke-width: 0px;
      }

      .cls-7 {
        stroke-width: 12px;
      }

      .cls-7, .cls-8, .cls-9, .cls-10 {
        stroke: #010101;
        stroke-miterlimit: 10;
      }

      .cls-7, .cls-9 {
        fill: #b5e1f9;
      }

      .cls-8 {
        fill: #bce6fb;
        stroke-width: 6px;
      }

      .cls-2 {
        fill: #fbcece;
      }

      .cls-3 {
        fill: #fff;
      }

      .cls-4 {
        fill: #6995ce;
      }

      .cls-9 {
        stroke-width: 7px;
      }

      .cls-5 {
        fill: #231f20;
      }

      .cls-6 {
        fill: #f0f9f9;
      }

      .cls-10 {
        fill: none;
        stroke-width: 9px;
      }
    </style>
  </defs>
  <ellipse class="cls-8" cx="147.99" cy="140.46" rx="144.99" ry="137.46"/>
  <circle class="cls-6" cx="150.39" cy="145.33" r="110"/>
  <ellipse class="cls-3" cx="144.35" cy="164.36" rx="80.9" ry="90.97"/>
  <circle class="cls-10" cx="150.03" cy="144.98" r="110.36"/>
  <path class="cls-7" d="M47.51,153.38c0,17.22-7.35,31.19-16.42,31.19-9.07,0-16.42-13.96-16.42-31.19s7.35-31.19,16.42-31.19,16.42,13.96,16.42,31.19Z"/>
  <path class="cls-5" d="M152.44,194.21c-9.39.91-18.27-1.8-26.22-8.12-2.05-1.63-1.98-4.46.19-6.09h0c1.9-1.43,4.69-1.39,6.49.04,10.29,8.19,21.76,8.2,34.84.05,2.08-1.29,4.9-1.04,6.5.58h0c1.75,1.79,1.31,4.55-.98,5.96-7.09,4.4-14.09,6.92-20.83,7.57h0Z"/>
  <ellipse class="cls-5" cx="109.15" cy="137.2" rx="13.23" ry="24.83"/>
  <ellipse class="cls-3" cx="111.53" cy="123.15" rx="7.16" ry="8.09"/>
  <ellipse class="cls-3" cx="191.77" cy="133" rx="2.12" ry="1.38"/>
  <ellipse class="cls-3" cx="182.94" cy="132.51" rx="5.28" ry="4.74"/>
  <ellipse class="cls-2" cx="90.29" cy="175.2" rx="7.53" ry="9.89" transform="translate(-88.73 257.68) rotate(-87.47)"/>
  <path class="cls-7" d="M280.49,152.48c0,17.22-7.35,31.19-16.42,31.19-9.07,0-16.42-13.96-16.42-31.19s7.35-31.19,16.42-31.19,16.42,13.96,16.42,31.19Z"/>
  <ellipse class="cls-5" cx="188.79" cy="135.96" rx="13.23" ry="24.83"/>
  <ellipse class="cls-3" cx="185.69" cy="123.15" rx="6.61" ry="8.47"/>
  <ellipse class="cls-2" cx="204.74" cy="175.2" rx="7.53" ry="9.89" transform="translate(20.69 372.02) rotate(-87.47)"/>
  <ellipse class="cls-1" cx="188.79" cy="23.36" rx="7.16" ry="33.68" transform="translate(116.42 199.28) rotate(-74.69)"/>
  <ellipse class="cls-9" cx="31.68" cy="154.52" rx=".23" ry="2.68"/>
  <ellipse class="cls-9" cx="263.85" cy="153.38" rx=".23" ry="2.68"/>
  <path class="cls-4" d="M274.43,156.96c-.44,6.88-4.54,20.71-10.37,20.71s-8.58-10.2-9.88-17.36c-.41-2.27-.08-.11.02-1.49.1-1.46,5.32.74,9.63.74s8.58-14.52,10.19-13.68c.58.3.57,8.75.42,11.08Z"/>
  <path class="cls-4" d="M20.61,158.49c.68,6.86,5.26,20.54,11.07,20.33s8.18-10.5,9.22-17.71c.33-2.28.07-.12-.07-1.49-.15-1.45-5.27.93-9.56,1.08s-8.44-14.25-10.01-13.35c-.56.33-.87,8.81-.64,11.13Z"/>
</svg>