<?xml version="1.0" encoding="UTF-8"?>
<svg id="Layer_2" data-name="Layer 2" xmlns="http://www.w3.org/2000/svg" viewBox="0 0 464.21 454.19">
  <defs>
    <style>
      .cls-1 {
        fill: none;
        stroke-width: 5px;
      }

      .cls-1, .cls-2 {
        stroke-miterlimit: 10;
      }

      .cls-1, .cls-2, .cls-3 {
        stroke: #231f20;
      }

      .cls-2, .cls-3, .cls-4 {
        fill: #231f20;
      }

      .cls-5 {
        fill: #fff;
      }

      .cls-5, .cls-6, .cls-7, .cls-8, .cls-9, .cls-4, .cls-10, .cls-11, .cls-12, .cls-13 {
        stroke-width: 0px;
      }

      .cls-6 {
        fill: #d1e4ff;
      }

      .cls-3 {
        stroke-miterlimit: 10;
        stroke-width: 1px;
      }

      .cls-7 {
        fill: #ffdf9d;
      }

      .cls-8 {
        fill: #9cd1f1;
      }

      .cls-9 {
        fill: #fbcdce;
      }

      .cls-10 {
        fill: #feebe2;
      }

      .cls-11 {
        fill: #f9fdff;
      }

      .cls-12 {
        fill: #f0f9f9;
      }

      .cls-13 {
        fill: #4455a5;
      }
    </style>
  </defs>
  <path class="cls-8" d="M461.46,217.15c13.06,113.68-92.7,228.37-197.24,228.37s-196.99-115.97-196.99-230.46S154.27-14.96,256.51,7.76c108.96,24.21,191.75,94.59,204.95,209.39Z"/>
  <ellipse class="cls-11" cx="309.13" cy="392.87" rx="45.14" ry="46.96"/>
  <path class="cls-13" d="M422.58,251.91c11.64-2.91-8.29,44.41-26.06,46.93-17.77,2.52-37.14-9.4-38.76-21.75-1.61-12.34,16.41-16.13,34.17-18.65,17.77-2.52-.57-20.38,32.71-28.7l-2.07,22.17Z"/>
  <path class="cls-11" d="M401.19,365.53c-4.67,29.4-15.53,26.65-47.57,48.27-19.29,13.02-29.25-12.05-29.25-34.46s18.64-40.56,41.63-40.56,38.7,4.65,35.19,26.75h0Z"/>
  <ellipse class="cls-11" cx="222.35" cy="386.47" rx="41.63" ry="40.56"/>
  <path class="cls-12" d="M372.74,296.53c-3.33.57-5.92-1.15-7.69-3.96-1.59-2.53-2.73-5.46-3.96-8.18-1.59-3.52-3.16-7.06-4.54-10.68-1.26-3.32-2.48-6.69-3.14-10.2-.58-3.04-.61-6.04-.46-9.11.2-4.53.41-9.87,2.8-13.86.12-1.3.32-2.58.63-3.86-.73-.05-1.47-.18-2.21-.45-1.11-.4-2.2-1.77-1.68-3.08.52-1.29,1.31-2.3,2.13-3.38-2.06-.68-2.12-4.02.13-4.78,3.15-1.07,6.36-1.9,9.59-2.66,1.25-1.96,2.57-3.86,4.18-5.5,1.92-1.94,4.78-4.47,7.67-4.5.61-.64,1.21-1.28,1.82-1.91,1.07-1.11,2.36-.88,3.19-.08.86-.55,1.76-.99,2.8-1.25.16-.04.32-.06.47-.07.21-.12.43-.25.64-.36,1.06-.56,2.06-.29,2.73.35.39,0,.75.12,1.05.31,1.66-.66,3.11-1.56,3.95-3.2.87-1.67,2.65-1.48,3.67-.46-5.45-77.33-69.15-138.36-146.93-138.36S102.27,134.05,102.27,216.41s65.96,149.12,147.31,149.12c52.38,0,98.36-27.68,124.48-69.37-.43.16-.87.29-1.33.37Z"/>
  <ellipse class="cls-5" cx="230.6" cy="215.57" rx="127.06" ry="120.43"/>
  <ellipse class="cls-3" cx="389.18" cy="256.42" rx="16.89" ry="5.56" transform="translate(65.29 591.54) rotate(-79.36)"/>
  <g>
    <path class="cls-2" d="M406.57,204.55c-3.8-39.4-20.88-75.75-48.11-102.37-28.12-27.48-65.43-42.62-105.05-42.62-89.04,0-161.47,70.93-161.47,158.11,0,63.99,39.03,119.22,95,144.08.42-.64.9-1.25,1.42-1.82-.02-.43.09-.87.38-1.28.62-.87,1.3-1.71,2.01-2.5.62-2.45,2.2-4.52,4.11-6.13-52.57-22.13-89.47-73.12-89.47-132.34,0-79.46,66.4-144.11,148.01-144.11,70.53,0,127.46,51.13,138.58,122.91-.93-.07-1.86-.11-2.8-.11-25.83,0-46.84,26.46-46.84,58.98,0,21.81,9.49,41.51,24.27,51.72-25.6,34.61-65.99,54.4-112.15,54.7.44,1.39.75,2.83,1.25,4.21.23.63.11,1.3-.22,1.86,1.47,2.59,3.02,5.13,4.89,7.43.09.11.16.23.24.35,50.81-2.09,94.8-26.23,121.5-66.98l4.66-7.13-7.66-3.29c-13.96-5.99-23.34-23.22-23.34-42.87,0-24.8,14.98-44.98,33.39-44.98,2.86,0,5.71.5,8.5,1.5l9.93,3.55-1.05-10.87h0Z"/>
    <path class="cls-2" d="M402.06,195.88l-9.93-3.55,1.05,10.87c.18,1.86.32,3.73.43,5.6,4.66,1.23,9,3.42,13.26,5.88.18.11.35.23.48.37v-.16c9.31,8.14,15.24,22.21,15.24,37.72,0,24.8-14.98,44.98-33.39,44.98-.65,0-1.3-.03-1.95-.08,1.3.24,1.65,1.17,0,0-.19.05.02.06-.19.05-4.46-.07-9.29-1.4-13.12-3.75-1.09,1.84-1.74,2.41-2.91,4.2l-4.67,7.13,7.66,3.29c4.89,2.1,10.01,3.17,15.18,3.17,25.83,0,46.84-26.46,46.84-58.98,0-26.25-13.97-49.57-33.97-56.72v-.02Z"/>
  </g>
  <path class="cls-4" d="M182.9,391.8c2.59.15,5.15.54,7.67,1.17,1,.25,2.02.48,2.94.94.15.08.3.17.45.25-4.83-6.64-7.44-14.43-6.72-22.18,2.25-24.07,24.05-25.49,36.85-24.2,21.94,2.21,37,24.77,35.33,42.7-.75,8.07-3.17,16.1-12.8,19.84,1.01.23,2.03.47,3.05.68,3.2.66,6.63,1.36,9.67,2.82,5.51-5.16,8.74-12.62,9.65-22.37,2.14-23-16.21-50.81-43.97-53.62-27.45-2.77-45.15,9.64-47.34,33.19-.64,6.87.71,14,3.8,20.73.48.01.95.03,1.42.06h0Z"/>
  <path class="cls-4" d="M349.51,420.57c.92-.4,1.84-.86,2.74-1.36h0c1.43-1.73,3.15-3.15,4.9-4.52.07-.11.13-.22.22-.32.37-.44.74-.86,1.12-1.28-2.67.04-5.31-.22-7.84-.82-9.51-2.26-16.24-6.99-20-14.05-3.8-7.12-4.51-16.79-2.05-27.96,2.27-10.34,9.16-19.19,19.41-24.93,5.72-3.2,12.09-5.15,18.36-5.72,4.27-.39,8.49-.14,12.4.79h0c9.49,2.26,15.6,6.36,18.68,12.54,3.09,6.18,3.4,14.71.99,26.06,2.28-.93,4.54-1.93,6.79-2.94,1.24-.92,2.54-1.76,3.89-2.48,1.26-10.18.23-18.5-3.13-25.24-4.4-8.82-12.83-14.77-25.07-17.68-12.03-2.86-25.69-.72-37.46,5.88-12.72,7.12-21.32,18.31-24.23,31.51-3.03,13.8-2.02,25.59,3.02,35.03,4.69,8.8,12.81,15.06,23.58,18.23,1.16-.47,2.36-.76,3.68-.71v-.03Z"/>
  <path class="cls-7" d="M343.55,425.27c-.49-3.53-1.53-1.73-3.13-1.92l-2.84-1.66c-82.62-5.04-187.29-23.99-225.04-134.46-36.88-107.91,1.88-161.03,73.53-250.75,30.25-27.07,40.85-20.29,67.48-26.83.27-.07.55-.14.82-.21.09-1.03.2-2.06.33-3.09-13.71-2.94-29.01-6.18-33.14-6.02-14.02.55-1.42-.59-5.04-.26-51.77,2.08-95.87,17.8-131.1,46.72C49.21,76.52,24.13,118.84,10.91,172.54c-3.21,12.38-5.27,23.19-6.29,33.05v.18c-2.83,60.22,12.65,116.66,43.56,158.93,35.81,48.97,91.4,77.95,160.79,83.81,13.35,1.13,29.28,2.47,43.95,2.47,3.93,0,7.77-.1,11.44-.32,25.28-1.79,49.22-11.52,71.18-20.88,5.67-2.58,1.82-1.96,7.33-4.09l.69-.42ZM341.54,425.3c-.49-3.53-4.77-1.77-6.37-1.96h-.14c-82.62-5.04-187.29-23.99-225.04-134.46-35.73-104.56-.45-157.67,66.95-242.49,6.46-8.13,14.03-15.21,22.55-20.75,19.36-12.58,30.44-9.02,52.33-14.55h0c.09-1.04.2-2.07.33-3.1-13.71-2.94-29.01-6.18-33.14-6.02-14.02.55-1.42-.59-5.04-.26-51.77,2.08-95.87,17.8-131.1,46.72C46.66,78.19,21.59,120.51,8.36,174.21c-3.21,12.38-5.27,23.19-6.29,33.05v.18c-2.83,60.22,15.2,114.99,46.1,157.26,35.81,48.97,77.78,64.64,158.24,85.48,13.35,1.13,29.28,2.47,43.95,2.47,3.93,0,8.07-1.22,11.74-1.44,35.39-9.26,47.87-10.93,69.82-20.29,4.93-2.54-18.74.14,8.94-4.09l.66-1.53ZM334.4,428.09c-21.36,9.1-45.7,14.84-70.38,16.59-16.99,1.03-37.85-.73-54.6-2.15C54.93,429.48,5.57,307.11,10.21,206.22v-.12c1-9.5,2.99-19.96,6.11-32C42.01,69.87,113.21,10.19,216.82,6.06h.14c1.4-.14,4.35-.33,8.22-.53,1.86-.1,2.11,2.82.27,3.08-8.42,1.2-16.01,3.72-23.58,7.45-13.15,6.48-24.77,16.03-34.43,27.55-33.81,40.31-49.4,66.67-64.19,112.86-15.06,47.06-15.67,92.72.86,136.66,44.73,110.27,147.45,129.15,231.43,134.43-.35.18-.73.36-1.13.54h0Z"/>
  <path class="cls-1" d="M461.71,227.63c0,123.28-102.79,223.22-229.6,223.22S2.5,350.91,2.5,227.63,104.51-7.94,232.1,4.41c126.26,12.22,229.6,99.94,229.6,223.22h0Z"/>
  <path class="cls-4" d="M278.6,251.75c-3,.09-6-.23-8.97-.99-14.04-3.6-24.72-16.03-30.09-34.63-1.39-4.82,1.22-9.93,5.51-10.93h0c3.65-.85,7.27,1.62,8.46,5.72,3.7,12.66,10.49,20.98,19.21,23.21,8.8,2.26,18.39-1.94,26.1-11.08,2.57-3.05,6.66-3.5,9.65-.97h0c3.63,3.09,4.06,9.16.92,12.87-8.84,10.5-19.79,16.45-30.8,16.79h0Z"/>
  <path class="cls-4" d="M158.39,228.38c-3,.09-6-.23-8.97-.99-14.04-3.6-24.72-16.03-30.09-34.63-1.39-4.82,1.22-9.93,5.51-10.93h0c3.65-.85,7.27,1.62,8.46,5.72,3.7,12.66,10.49,20.98,19.21,23.21,8.8,2.26,18.39-1.94,26.1-11.08,2.57-3.05,6.66-3.5,9.65-.97h0c3.63,3.09,4.06,9.16.92,12.87-8.84,10.5-19.79,16.45-30.8,16.79h0Z"/>
  <path class="cls-4" d="M209.12,277.75c-9.43,0-18.02-4.35-25.31-12.98-1.88-2.23-1.54-5.66.78-7.39h0c2.03-1.52,4.81-1.14,6.46.82,9.45,11.18,20.86,12.55,34.67,4.18,2.19-1.32,4.98-.69,6.41,1.48h0c1.57,2.39.87,5.69-1.55,7.14-7.48,4.51-14.69,6.75-21.47,6.75h0Z"/>
  <ellipse class="cls-9" cx="131.65" cy="243.91" rx="9.07" ry="11.91" transform="translate(-125.35 347.73) rotate(-83.64)"/>
  <ellipse class="cls-9" cx="306.31" cy="267.08" rx="9.07" ry="11.91" transform="translate(6.94 541.91) rotate(-83.64)"/>
  <g id="Layer_3" data-name="Layer 3">
    <path class="cls-10" d="M331.7,425.88c.45-.89-9.49-1-24.67-2.86,14.9,2.91,24.22,3.73,24.67,2.86Z"/>
    <path class="cls-10" d="M248.95,408.91c21.17,8.41,42.42,12.19,58.09,14.1-20.07-3.92-50.27-11.66-82.62-24.2,2.87,1.6,5.73,3.24,8.55,4.95.69.42,1.37.84,2.06,1.26.88.44,1.76.88,2.65,1.31,3.16,1.53,6.32,2.63,9.79,3.11.56.08,1.06-.15,1.48-.53Z"/>
    <path class="cls-10" d="M105.64,321.11c.66-5.52,1.18-11.05,1.73-16.58.39-3.97.91-7.93,1.71-11.83-7.07-17.97-7.77-38.83-9.51-61.24-2.2-28.27-.7-54.41,12.48-79.72-.64-.79-.72-1.92-.25-2.86,2.67-5.29,4.39-11,6.83-16.4-.06-.21-.1-.44-.11-.69-.09-4.21,1.44-8.25,3.4-11.87,3.6-6.66,8.77-11.9,13.6-17.56.08-.42.13-.84.19-1.26-1.73-.08-3.26-2.53-1.72-4.33,5.64-6.61,10.27-13.98,15.49-20.92,4.24-5.64,9.31-10.59,14.69-15.04,2.82-2.33,5.73-4.55,8.73-6.63,2.85-1.97,5.84-3.7,8.65-5.7,2.92-2.06,5.71-4.32,8.72-6.25,1.43-.92,2.91-1.71,4.44-2.41.04-.05.08-.1.12-.15,1.51-1.47,3.29-2.22,5.11-3.14.74-.37,1.51-.36,2.14-.08.79-.33,1.57-.65,2.36-.98.07-.09.13-.18.19-.27.2-.46.46-.91.75-1.31-.16-.65-.05-1.38.22-2,.59-1.37,2.97-2,4.17-2.5.11-.04.2-.07.31-.1.09-.64.42-1.26,1.11-1.71.99-.66,2.02-1.2,3.1-1.6,3.99-1.83,6.4-5.02,10.83-5.05.65,0,2.41-.77,2.81-.34,11.02-8.85,18.32-10.89,17.43-11.8-4.35-4.44-176.29,31.65-181.08,210.75-1.13,42.1,15.54,76.45,41.05,104.19.1-.88.2-1.76.3-2.61Z"/>
    <path class="cls-10" d="M145.84,336.01c-1.62-1.73-3.23-3.5-4.8-5.29,1.43,1.93,3.05,3.68,4.8,5.29Z"/>
  </g>
  <path class="cls-1" d="M256.51,7.76S99.16,48.32,102.31,233.49c.89,52.49,23.43,88.5,49.9,118.03,62.55,69.79,189.18,72.35,189.18,72.35"/>
  <path class="cls-5" d="M227,451.88c1.97,0,2.96,0,4.94-.02"/>
  <ellipse class="cls-6" cx="208.7" cy="53.66" rx="52.7" ry="11.86" transform="translate(1.13 111.54) rotate(-30)"/>
</svg>