<?xml version="1.0" encoding="UTF-8"?>
<svg id="Layer_2" data-name="Layer 2" xmlns="http://www.w3.org/2000/svg" viewBox="0 0 482.69 502.62">
  <defs>
    <style>
      .cls-1 {
        fill: none;
        stroke-width: 5px;
      }

      .cls-1, .cls-2 {
        stroke: #231f20;
        stroke-miterlimit: 10;
      }

      .cls-2, .cls-3 {
        fill: #231f20;
      }

      .cls-4 {
        fill: #fff;
      }

      .cls-4, .cls-5, .cls-6, .cls-7, .cls-3, .cls-8, .cls-9, .cls-10, .cls-11 {
        stroke-width: 0px;
      }

      .cls-5 {
        fill: #ffdf9d;
      }

      .cls-6 {
        fill: #9cd1f1;
      }

      .cls-7 {
        fill: #fbcdce;
      }

      .cls-8 {
        fill: #feebe2;
      }

      .cls-9 {
        fill: #f9fdff;
      }

      .cls-10 {
        fill: #f0f9f9;
      }

      .cls-11 {
        fill: #4455a5;
      }
    </style>
  </defs>
  <path class="cls-6" d="M479.93,216.31c13.59,113.68-96.43,228.37-205.18,228.37s-204.92-115.97-204.92-230.46S160.38-15.8,266.73,6.92c113.34,24.21,199.47,94.59,213.2,209.39Z"/>
  <circle class="cls-9" cx="321.47" cy="392.03" r="46.96"/>
  <path class="cls-11" d="M439.37,257.93c12.11-2.91-8.52,36.42-27,38.94-18.48,2.52-38.74-1.41-40.43-13.76-1.68-12.34,17.07-16.13,35.55-18.65,18.48-2.52-2.75,1.79,31.87-6.53Z"/>
  <path class="cls-9" d="M417.23,364.69c-4.86,29.4-16.15,26.65-49.48,48.27-20.07,13.02-30.43-12.05-30.43-34.46s19.39-40.56,43.31-40.56,40.26,4.65,36.61,26.75Z"/>
  <ellipse class="cls-9" cx="231.2" cy="385.63" rx="43.31" ry="40.56"/>
  <path class="cls-10" d="M387.64,295.69c-3.46.57-6.16-1.15-8-3.96-1.65-2.53-2.84-5.46-4.12-8.18-1.65-3.52-3.29-7.06-4.72-10.68-1.31-3.32-2.58-6.69-3.27-10.2-.6-3.04-.63-6.04-.48-9.11.21-4.53.43-9.87,2.91-13.86.12-1.3.33-2.58.66-3.86-.76-.05-1.53-.18-2.3-.45-1.15-.4-2.29-1.77-1.75-3.08.54-1.29,1.36-2.3,2.22-3.38-2.14-.68-2.21-4.02.14-4.78,3.28-1.07,6.62-1.9,9.98-2.66,1.3-1.96,2.67-3.86,4.35-5.5,2-1.94,4.97-4.47,7.98-4.5.63-.64,1.26-1.28,1.89-1.91,1.11-1.11,2.45-.88,3.32-.08.89-.55,1.83-.99,2.91-1.25.17-.04.33-.06.49-.07.22-.12.45-.25.67-.36,1.1-.56,2.14-.29,2.84.35.41,0,.78.12,1.09.31,1.73-.66,3.24-1.56,4.11-3.2.91-1.67,2.76-1.48,3.82-.46-5.67-77.33-71.93-138.36-152.84-138.36S106.29,133.21,106.29,215.57s68.61,149.12,153.24,149.12c54.49,0,102.32-27.68,129.49-69.37-.45.16-.9.29-1.38.37Z"/>
  <ellipse class="cls-4" cx="239.78" cy="214.73" rx="132.17" ry="120.43"/>
  <ellipse class="cls-2" cx="404.75" cy="255.6" rx="16.91" ry="5.78" transform="translate(75.57 603.15) rotate(-78.83)"/>
  <g>
    <path class="cls-2" d="M422.83,203.71c-3.95-39.4-21.72-75.75-50.05-102.37-29.25-27.48-68.06-42.62-109.28-42.62-92.62,0-167.97,70.93-167.97,158.11,0,63.99,40.6,119.22,98.82,144.08.44-.64.94-1.25,1.48-1.82-.02-.43.09-.87.4-1.28.65-.87,1.35-1.71,2.09-2.5.65-2.45,2.29-4.52,4.28-6.13-54.69-22.13-93.07-73.12-93.07-132.34,0-79.46,69.07-144.11,153.97-144.11,73.37,0,132.59,51.13,144.16,122.91-.97-.07-1.94-.11-2.91-.11-26.87,0-48.73,26.46-48.73,58.98,0,21.81,9.87,41.51,25.25,51.72-26.63,34.61-68.65,54.4-116.66,54.7.46,1.39.78,2.83,1.3,4.21.24.63.11,1.3-.23,1.86,1.53,2.59,3.14,5.13,5.09,7.43.09.11.17.23.25.35,52.86-2.09,98.62-26.23,126.39-66.98l4.85-7.13-7.97-3.29c-14.52-5.99-24.28-23.22-24.28-42.87,0-24.8,15.58-44.98,34.73-44.98,2.97,0,5.94.5,8.84,1.5l10.33,3.55-1.09-10.87Z"/>
    <path class="cls-2" d="M418.14,195.04l-10.33-3.55,1.09,10.87c.19,1.86.33,3.73.45,5.6,4.85,1.23,9.36,3.42,13.79,5.88.19.11.36.23.5.37,0-.05,0-.11,0-.16,9.68,8.14,15.85,22.21,15.85,37.72,0,24.8-15.58,44.98-34.73,44.98-.68,0-1.35-.03-2.03-.08,1.35.24,1.72,1.17,0,0-.2.05.02.06-.2.05-4.64-.07-9.66-1.4-13.65-3.75-1.13,1.84-1.81,2.41-3.03,4.2l-4.86,7.13,7.97,3.29c5.09,2.1,10.41,3.17,15.79,3.17,26.87,0,48.73-26.46,48.73-58.98,0-26.25-14.53-49.57-35.34-56.72Z"/>
  </g>
  <path class="cls-3" d="M190.16,390.96c2.69.15,5.36.54,7.98,1.17,1.04.25,2.1.48,3.06.94.16.08.31.17.47.25-5.02-6.64-7.74-14.43-6.99-22.18,2.34-24.07,25.02-25.49,38.33-24.2,22.82,2.21,38.49,24.77,36.75,42.7-.78,8.07-3.3,16.1-13.32,19.84,1.05.23,2.11.47,3.17.68,3.33.66,6.9,1.36,10.06,2.82,5.73-5.16,9.09-12.62,10.04-22.37,2.23-23-16.86-50.81-45.74-53.62-28.55-2.77-46.97,9.64-49.25,33.19-.67,6.87.74,14,3.95,20.73.5.01.99.03,1.48.06Z"/>
  <path class="cls-3" d="M363.47,419.73c.96-.4,1.91-.86,2.85-1.36,0,0,0,0,0,0,1.49-1.73,3.28-3.15,5.1-4.52.07-.11.14-.22.23-.32.38-.44.77-.86,1.17-1.28-2.78.04-5.52-.22-8.16-.82-9.89-2.26-16.89-6.99-20.81-14.05-3.95-7.12-4.69-16.79-2.13-27.96,2.36-10.34,9.53-19.19,20.19-24.93,5.95-3.2,12.58-5.15,19.1-5.72,4.44-.39,8.83-.14,12.9.79h0c9.87,2.26,16.23,6.36,19.43,12.54,3.21,6.18,3.54,14.71,1.03,26.06,2.37-.93,4.72-1.93,7.06-2.94,1.29-.92,2.64-1.76,4.05-2.48,1.31-10.18.24-18.5-3.26-25.24-4.58-8.82-13.35-14.77-26.08-17.68-12.51-2.86-26.72-.72-38.97,5.88-13.23,7.12-22.18,18.31-25.2,31.51-3.15,13.8-2.1,25.59,3.14,35.03,4.88,8.8,13.33,15.06,24.53,18.23,1.21-.47,2.46-.76,3.83-.71Z"/>
  <path class="cls-5" d="M358.02,425.89c-.51-3.53-4.93-4.02-6.6-4.21h-.15c-85.95-5.04-194.83-23.99-234.1-134.46-38.36-107.91,1.96-161.03,76.49-250.75,31.47-27.07,42.49-20.29,70.2-26.83.28-.07.57-.14.85-.21.09-1.03.21-2.06.34-3.09-14.26-2.94-30.18-6.18-34.47-6.02-14.58.55-1.48-.59-5.24-.26-53.85,2.08-99.73,17.8-136.38,46.72C51.3,76.52,25.21,118.84,11.45,172.54c-3.34,12.38-5.48,23.19-6.54,33.05v.18c-2.94,60.22,13.16,116.66,45.31,158.93,37.25,48.97,95.08,77.95,167.26,83.81,13.89,1.13,30.46,2.47,45.72,2.47,4.09,0,8.08-.1,11.9-.32,26.3-1.79,52.24-7.67,75.08-17.03,5.9-2.58,8.25-4.9,7.83-7.75ZM355.36,427.55c-.51-3.53-4.93-4.02-6.6-4.21h-.15c-85.95-5.04-194.83-23.99-234.1-134.46-37.17-104.56-.47-157.67,69.64-242.49,6.72-8.13,14.59-15.21,23.46-20.75,20.14-12.58,31.67-9.02,54.44-14.55h0c.09-1.04.21-2.07.34-3.1-14.26-2.94-30.18-6.18-34.47-6.02-14.58.55-1.48-.59-5.24-.26-53.85,2.08-99.73,17.8-136.38,46.72C48.64,78.19,22.56,120.51,8.8,174.21c-3.34,12.38-5.48,23.19-6.54,33.05v.18c-2.94,60.22,13.16,116.66,45.31,158.93,37.25,48.97,95.08,77.95,167.26,83.81,13.89,1.13,30.46,2.47,45.72,2.47,4.09,0,8.08-.1,11.9-.32,26.3-1.79,52.24-7.67,75.08-17.03,5.9-2.58,8.25-4.9,7.83-7.75ZM347.96,428.09c-22.22,9.1-47.54,14.84-73.21,16.59-17.67,1.03-39.37-.73-56.8-2.15C57.25,429.48,5.9,307.11,10.73,206.22v-.12c1.04-9.5,3.11-19.96,6.36-32C43.81,69.87,117.87,10.19,225.65,6.06h.15c1.46-.14,4.53-.33,8.55-.53,1.93-.1,2.19,2.82.28,3.08-8.76,1.2-16.65,3.72-24.53,7.45-13.68,6.48-25.77,16.03-35.82,27.55-35.17,40.31-51.39,66.67-66.77,112.86-15.67,47.06-16.3,92.72.89,136.66,46.53,110.27,153.38,129.15,240.74,134.43-.36.18-.76.36-1.18.54Z"/>
  <path class="cls-1" d="M480.19,226.79c0,123.28-106.93,223.22-238.84,223.22S2.5,350.07,2.5,226.79,108.62-8.78,241.34,3.57c131.34,12.22,238.84,99.94,238.84,223.22Z"/>
  <path class="cls-3" d="M289.71,250.91c-3.12.09-6.24-.23-9.33-.99-14.61-3.6-25.72-16.03-31.3-34.63-1.45-4.82,1.27-9.93,5.73-10.93h0c3.8-.85,7.56,1.62,8.8,5.72,3.85,12.66,10.91,20.98,19.98,23.21,9.15,2.26,19.13-1.94,27.15-11.08,2.67-3.05,6.93-3.5,10.04-.97h0c3.78,3.09,4.22,9.16.96,12.87-9.2,10.5-20.59,16.45-32.04,16.79Z"/>
  <path class="cls-3" d="M164.66,227.54c-3.12.09-6.24-.23-9.33-.99-14.61-3.6-25.72-16.03-31.3-34.63-1.45-4.82,1.27-9.93,5.73-10.93h0c3.8-.85,7.56,1.62,8.8,5.72,3.85,12.66,10.91,20.98,19.98,23.21,9.15,2.26,19.13-1.94,27.15-11.08,2.67-3.05,6.93-3.5,10.04-.97h0c3.78,3.09,4.22,9.16.96,12.87-9.2,10.5-20.59,16.45-32.04,16.79Z"/>
  <path class="cls-3" d="M217.44,276.91c-9.81,0-18.74-4.35-26.33-12.98-1.96-2.23-1.6-5.66.81-7.39h0c2.11-1.52,5-1.14,6.72.82,9.83,11.18,21.7,12.55,36.07,4.18,2.28-1.32,5.18-.69,6.67,1.48h0c1.63,2.39.9,5.69-1.61,7.14-7.78,4.51-15.28,6.75-22.33,6.75Z"/>
  <ellipse class="cls-7" cx="136.84" cy="243.09" rx="9.07" ry="12.38" transform="translate(-118.32 355.81) rotate(-84.46)"/>
  <ellipse class="cls-7" cx="318.55" cy="266.25" rx="9.07" ry="12.38" transform="translate(22.78 557.6) rotate(-84.46)"/>
  <g id="Layer_3" data-name="Layer 3">
    <path class="cls-8" d="M263.66,404.09c-.43.38-.96.61-1.54.53-3.61-.48-6.89-1.58-10.18-3.11-2.86-1.33-5.63-2.81-8.63-3.79-4.11-1.35-8.23-2.66-12.35-3.96-.43.15-.9.18-1.38,0-3.14-1.14-6.19-2.5-9.4-3.44-1.45-.47-1.91-1.79-1.68-2.94-2.25-.97-4.55-1.85-6.86-2.69-.34.06-.7.04-1.09-.09-2.3-.78-4.5-1.77-6.67-2.83-3.4-1.38-6.7-2.93-9.75-4.99-1.12-.75-1.36-1.87-1.07-2.81-2.97-1.37-5.93-2.74-8.73-4.45-3.41-2.08-6.98-3.91-10.31-6.13-3.42-2.28-6.34-4.94-8.69-8.33-1.14-1.63-2.12-3.4-3.46-4.88-1.39-1.54-3.04-2.87-4.65-4.17-3.08-2.48-6.32-4.76-9.29-7.38-1.48-1.31-2.88-2.7-4.15-4.21-1.35-1.61-2.45-3.4-3.76-5.05-2.47-3.11-5.4-5.81-7.83-8.95-1.25-1.61-2.39-3.3-3.24-5.17-.89-1.97-1.49-4.07-2.11-6.14-1.11-3.71-2.31-7.34-5-10.23-1.02-1.1-.79-2.46-.03-3.35-10.82-19.59-18.12-42.02-20.19-67.69-2.29-28.27,5.92-55.62,19.63-80.93-.67-.79-.75-1.92-.26-2.86,2.78-5.29,4.57-11,7.11-16.4-.06-.21-.1-.44-.11-.69-.09-4.21,1.5-8.25,3.54-11.87,3.75-6.66,9.12-11.9,14.15-17.56.08-.42.14-.84.2-1.26-1.8-.08-3.39-2.53-1.79-4.33,5.87-6.61,10.68-13.98,16.11-20.92,4.41-5.64,9.68-10.59,15.28-15.04,2.93-2.33,5.96-4.55,9.08-6.63,2.96-1.97,6.07-3.7,9-5.7,3.04-2.06,5.94-4.32,9.07-6.25,1.49-.92,3.03-1.71,4.62-2.41.04-.05.08-.1.13-.15,1.57-1.47,3.42-2.22,5.32-3.14.77-.37,1.57-.36,2.23-.08.82-.33,1.63-.65,2.45-.98.07-.09.14-.18.2-.27.21-.46.48-.91.78-1.31-.17-.65-.05-1.38.23-2,.61-1.37,3.09-2,4.34-2.5.11-.04.21-.07.32-.1.09-.64.44-1.26,1.15-1.71,1.03-.66,2.1-1.2,3.22-1.6,4.15-1.83,8.56-2.84,13.17-2.87.68,0,1.25.28,1.67.71,11.46-8.85,18.41-14.12,17.48-15.03-4.53-4.44-183.38,31.65-188.37,210.75-4.61,165.13,266.72,218.45,269.27,213.67.96-1.81-33.83-7.73-77.19-24.29Z"/>
    <path class="cls-8" d="M151.61,335.17c-1.69-1.73-3.36-3.5-4.99-5.29,1.49,1.93,3.17,3.68,4.99,5.29Z"/>
  </g>
  <path class="cls-1" d="M266.73,6.92S103.05,47.48,106.33,232.65c3.19,180.31,246.52,189.86,246.52,189.86"/>
  <g>
    <path class="cls-4" d="M123.1,455.92c5.5,1.47,8.63,5.38,7.76,9.68-1.94-.48-2.92-.72-4.86-1.22.31-2.22-1.17-4.02-4.03-4.79-2.77-.74-4.97.03-5.49,1.91-.41,1.47.56,2.81,3,4.13,1.6.83,2.4,1.24,4.01,2.05,4.8,2.48,6.31,4.75,5.45,8.28-1.07,4.37-6.25,6.31-12.63,4.61-6.16-1.65-9.38-5.75-8.53-10.21,2.08.6,3.11.9,5.19,1.48-.22,2.4,1.34,4.2,4.57,5.06,3.19.85,5.47.12,5.96-1.81.39-1.52-.37-2.6-2.87-3.94-1.71-.9-2.57-1.35-4.27-2.26-4.3-2.3-5.95-5.2-5-8.51,1.22-4.23,5.94-6,11.72-4.45Z"/>
    <path class="cls-4" d="M139.35,451c1.99.47,2.98.69,4.97,1.14-1.16,5.19-1.74,7.78-2.9,12.97.05.01.07.02.12.03,2.01-2.5,5.09-3.53,8.88-2.74,5.48,1.13,8.11,5.27,7.08,10.75-1.17,6.25-1.75,9.37-2.92,15.62-2.17-.41-3.26-.61-5.43-1.04,1.16-5.85,1.74-8.77,2.9-14.62.71-3.56-.74-6.06-4.38-6.83-3.83-.8-6.73,1.18-7.58,4.98-1.24,5.56-1.86,8.34-3.11,13.91-2.15-.48-3.22-.73-5.37-1.23,2.58-10.97,5.15-21.95,7.73-32.92Z"/>
    <path class="cls-4" d="M159.97,482.63c.76-4.25,4.66-6.21,10.81-5.57,2.84.29,4.26.42,7.09.67.11-.75.16-1.13.27-1.88.39-2.71-1.28-4.61-4.46-5.1-3.01-.47-5.11.61-5.94,2.7-1.98-.33-2.97-.5-4.94-.85,1.06-4.33,5.49-6.86,11.7-5.91,6.09.94,9.58,4.57,8.93,9.47-.9,6.74-1.34,10.11-2.24,16.84-2.08-.28-3.13-.42-5.21-.72.23-1.61.35-2.41.58-4.01-.05,0-.07-.01-.12-.02-1.91,2.5-5.52,3.72-8.99,3.16-5.18-.83-8.26-4.44-7.48-8.8ZM177.1,483.13c.11-.77.17-1.16.28-1.93-2.57-.22-3.86-.34-6.43-.59-3.2-.29-5.22.72-5.57,2.8-.36,2.13,1.3,3.84,4.2,4.29,3.77.59,7.06-1.4,7.52-4.58Z"/>
    <path class="cls-4" d="M189.46,469.22c1.98.24,2.97.36,4.94.58-.19,1.67-.28,2.5-.47,4.17.05,0,.07,0,.12.01,1.17-2.77,3.61-4.22,6.58-3.92.74.07,1.38.25,1.76.36-.18,1.88-.27,2.81-.45,4.69-.4-.2-1.31-.41-2.33-.51-3.37-.34-5.69,1.59-6.08,5.06-.65,5.87-.98,8.8-1.64,14.67-2.18-.24-3.27-.37-5.45-.64,1.2-9.79,1.8-14.68,3-24.47Z"/>
    <path class="cls-4" d="M225.44,489.71c-.96,4.46-5.73,7.46-11.83,7.04-7.83-.54-12.1-5.89-11.37-13.64.72-7.7,5.76-12.38,12.91-11.88,7.03.49,11.19,5.48,10.85,12.95-.03.69-.05,1.04-.08,1.73-7.37-.34-11.05-.57-18.4-1.18l-.03.3c-.35,4.27,2.18,7.34,6.52,7.64,3.09.21,5.46-1.11,6.31-3.22,2.05.12,3.07.17,5.12.26ZM207.83,481.21c5.17.43,7.75.6,12.93.9.09-3.77-2.24-6.55-5.9-6.8-3.66-.25-6.45,2.22-7.03,5.91Z"/>
    <path class="cls-4" d="M228.94,484.77c.31-7.78,4.74-12.53,11.11-12.41,3.64.06,6.52,1.86,7.95,4.58.04,0,.06,0,.1,0,0-5.31,0-7.96.02-13.27,2.05,0,3.08,0,5.14-.02.11,11.27.21,22.55.32,33.82-2.13.02-3.19.02-5.32.02,0-1.68,0-2.52,0-4.2-.04,0-.06,0-.1,0-1.56,2.81-4.62,4.61-8.5,4.54-6.75-.12-11.01-5.29-10.71-13.06ZM234.41,484.96c-.15,5.2,2.45,8.55,6.75,8.61,4.18.06,6.97-3.25,6.98-8.41,0-5.11-2.69-8.45-6.73-8.51-4.16-.06-6.85,3.13-7,8.31Z"/>
    <path class="cls-4" d="M258.67,472.73c1.99-.04,2.98-.07,4.97-.13.05,1.68.08,2.52.13,4.19.05,0,.07,0,.12,0,.76-2.91,2.97-4.69,5.95-4.82.75-.03,1.4.05,1.79.11.09,1.88.13,2.82.22,4.71-.42-.14-1.35-.22-2.37-.18-3.38.14-5.4,2.38-5.3,5.87.18,5.9.28,8.86.46,14.76-2.19.07-3.28.1-5.47.14-.2-9.86-.3-14.79-.5-24.65Z"/>
    <path class="cls-4" d="M297.18,487.91c-.31,4.55-4.62,8.2-10.72,8.65-7.82.58-12.81-4.12-13.19-11.89-.38-7.73,3.94-13.07,11.09-13.59,7.02-.52,11.86,3.83,12.58,11.28.07.69.1,1.04.17,1.73-7.34.71-11.02,1-18.38,1.44,0,.12.01.18.02.3.26,4.28,3.19,6.96,7.54,6.64,3.09-.23,5.25-1.87,5.79-4.09,2.04-.18,3.06-.27,5.11-.47ZM278.54,481.99c5.17-.31,7.76-.5,12.93-.95-.45-3.75-3.15-6.17-6.81-5.9s-6.07,3.11-6.12,6.84Z"/>
    <path class="cls-4" d="M300.61,487.81c-.44-4.29,2.75-7.26,8.84-8.34,2.8-.51,4.2-.77,7-1.31-.1-.75-.16-1.13-.26-1.88-.37-2.72-2.5-4.07-5.69-3.67-3.02.38-4.74,1.99-4.95,4.24-1.99.23-2.98.34-4.97.55-.17-4.46,3.37-8.11,9.6-8.9,6.11-.78,10.47,1.75,11.2,6.64,1,6.72,1.5,10.08,2.49,16.81-2.08.31-3.12.46-5.21.75-.22-1.61-.33-2.41-.55-4.02-.05,0-.07.01-.12.02-1.15,2.93-4.28,5.1-7.76,5.52-5.2.63-9.15-1.99-9.6-6.4ZM317.19,483.57c-.11-.77-.16-1.16-.26-1.93-2.53.5-3.8.74-6.33,1.21-3.16.61-4.81,2.13-4.57,4.23.24,2.14,2.31,3.33,5.21,2.97,3.78-.47,6.4-3.29,5.96-6.48Z"/>
    <path class="cls-4" d="M325.24,466.79c1.97-.31,2.95-.47,4.92-.81.28,1.64.42,2.45.69,4.09.05,0,.07-.01.12-.02.67-2.9,2.98-5.14,6.36-5.77,3.48-.64,6.33.58,7.94,3.39.05,0,.07-.01.12-.02.71-3.2,3.28-5.59,6.83-6.36,4.93-1.07,8.88,1.3,10,6.07,1.55,6.6,2.33,9.9,3.89,16.49-2.16.51-3.23.76-5.39,1.24-1.38-6.14-2.06-9.21-3.44-15.35-.7-3.11-2.84-4.5-5.9-3.84-3.06.65-4.75,3.26-4.13,6.32,1.22,6.04,1.83,9.06,3.06,15.09-2.12.43-3.18.64-5.3,1.04-1.21-6.33-1.82-9.49-3.03-15.81-.53-2.79-2.72-4.2-5.65-3.67-3.08.56-4.87,3.24-4.34,6.35,1.02,6.01,1.53,9.01,2.55,15.02-2.17.37-3.25.55-5.42.89-1.55-9.74-2.32-14.61-3.87-24.35Z"/>
    <path class="cls-4" d="M374.51,455.85c5.5-1.47,10.18.36,11.56,4.52-1.93.56-2.89.83-4.83,1.37-.83-2.08-3.02-2.9-5.89-2.14-2.77.74-4.29,2.5-3.8,4.39.38,1.48,1.88,2.16,4.66,2.08,1.8-.08,2.7-.12,4.5-.22,5.4-.25,7.85.97,8.87,4.46,1.26,4.32-2.28,8.59-8.66,10.3-6.16,1.64-10.98-.31-12.47-4.6,2.09-.51,3.14-.77,5.23-1.31,1,2.19,3.25,2.97,6.49,2.11,3.19-.85,4.81-2.62,4.27-4.54-.42-1.51-1.62-2.07-4.46-1.98-1.93.08-2.9.11-4.83.17-4.87.16-7.74-1.55-8.56-4.89-1.05-4.28,2.15-8.16,7.92-9.7Z"/>
  </g>
</svg>